<svg width="20" height="13" viewBox="0 0 20 13" fill="none" xmlns="http://www.w3.org/2000/svg">
<path d="M9.78458 12.9441H10.9803C10.9803 12.9441 11.3415 12.8988 11.5262 12.6724C11.6957 12.4646 11.691 12.0744 11.691 12.0744C11.691 12.0744 11.6676 10.2471 12.4122 9.97804C13.1462 9.713 14.0883 11.7441 15.0877 12.5259C15.8428 13.1172 16.4167 12.9881 16.4167 12.9881L19.0875 12.9454C19.0875 12.9454 20.4843 12.8469 19.8216 11.5963C19.7678 11.4937 19.4358 10.6706 17.8357 8.97781C16.1607 7.20644 16.3851 7.49279 18.4026 4.4295C19.631 2.56356 20.122 1.42481 19.9688 0.937352C19.8227 0.472532 18.9192 0.595063 18.9192 0.595063L15.9117 0.616373C15.9117 0.616373 15.6885 0.581745 15.5237 0.694953C15.3624 0.805498 15.2583 1.06255 15.2583 1.06255C15.2583 1.06255 14.7826 2.50629 14.1479 3.73427C12.8084 6.32474 12.2731 6.46192 12.0545 6.30077C11.5449 5.92518 11.6723 4.79443 11.6723 3.99132C11.6723 1.48075 12.0066 0.433908 11.0212 0.162208C10.6939 0.0729729 10.4532 0.013039 9.61743 0.00371595C8.54325 -0.0109346 7.63622 0.00504782 7.12192 0.291399C6.77944 0.481855 6.51645 0.908051 6.67658 0.932025C6.87529 0.962658 7.3253 1.07054 7.56375 1.4408C7.87232 1.91894 7.86064 2.99109 7.86064 2.99109C7.86064 2.99109 8.0383 5.94649 7.44686 6.31409C7.04127 6.56581 6.48606 6.05171 5.29149 3.70097C4.68134 2.49696 4.21964 1.16643 4.21964 1.16643C4.21964 1.16643 4.12964 0.917374 3.97184 0.784188C3.77898 0.623033 3.51015 0.572422 3.51015 0.572422L0.652288 0.593732C0.652288 0.593732 0.223317 0.60705 0.0655208 0.820148C-0.0747422 1.00927 0.0538322 1.40084 0.0538322 1.40084C0.0538322 1.40084 2.29103 7.3636 4.82394 10.3683C7.14763 13.1252 9.78458 12.9441 9.78458 12.9441Z" fill="#BDBDBD"/>
</svg>
