<svg width="19" height="17" viewBox="0 0 19 17" fill="none" xmlns="http://www.w3.org/2000/svg">
<path d="M12.3151 0C12.5005 0 12.6925 0 12.8779 0C12.8911 0.022778 12.9176 0.0151884 12.9375 0.0151884C13.0831 0.0303737 13.2288 0.0531497 13.3678 0.0911131C14.1094 0.273337 14.745 0.675748 15.2747 1.29075C15.3144 1.33631 15.3409 1.3515 15.4005 1.33631C16.0295 1.18446 16.6386 0.949087 17.2146 0.615009C17.3735 0.523897 17.5258 0.42519 17.7046 0.318893C17.4066 1.32872 16.8703 2.09558 16.1089 2.66503C16.824 2.57392 17.506 2.35373 18.1681 2.03484C18.1747 2.04243 18.1747 2.04243 18.1813 2.05002C18.1614 2.0804 18.1482 2.11836 18.1283 2.14873C17.6582 2.92318 17.0955 3.59134 16.4334 4.1532C16.3671 4.20635 16.3473 4.25949 16.3473 4.35061C16.3671 5.16302 16.3274 5.96785 16.2082 6.76508C16.0493 7.83564 15.7713 8.86825 15.3806 9.86289C14.7318 11.5105 13.8247 12.9455 12.6329 14.13C11.845 14.912 10.9776 15.5422 10.0242 16.0129C8.90526 16.5596 7.73996 16.8709 6.5217 16.962C6.45549 16.9696 6.38928 16.9544 6.32969 17C5.93243 17 5.54179 17 5.14453 17C5.01211 16.9393 4.86644 16.962 4.7274 16.9469C4.16462 16.8861 3.60183 16.7722 3.05891 16.6128C2.09224 16.3243 1.18516 15.8915 0.324428 15.3144C0.218492 15.2461 0.119178 15.1702 0 15.0866C2.05251 15.322 3.87991 14.7374 5.52192 13.31C3.50252 13.2037 2.35046 11.5788 2.03927 10.3336C2.15183 10.3488 2.25777 10.3716 2.3637 10.3792C2.47626 10.3944 2.58882 10.402 2.70138 10.402C2.80731 10.402 2.91987 10.402 3.0258 10.3868C3.13836 10.3792 3.25092 10.3564 3.35685 10.3336C3.46279 10.3184 3.5621 10.2957 3.6879 10.2425C2.80069 10.0147 2.08562 9.51362 1.53608 8.72398C0.97991 7.93434 0.715071 7.02323 0.715071 5.99062C1.23813 6.31711 1.78767 6.49933 2.37694 6.51451C1.58242 5.84636 1.05936 4.98839 0.840868 3.89505C0.622374 2.80929 0.768037 1.7691 1.24475 0.789641C1.27123 0.820012 1.2911 0.842788 1.30434 0.865566C1.60229 1.28316 1.92671 1.67039 2.27101 2.03484C3.25092 3.07503 4.35662 3.87227 5.59475 4.43412C6.65412 4.91246 7.75321 5.1858 8.89202 5.26932C8.95823 5.27691 8.95823 5.24654 8.94499 5.1858C8.84567 4.67709 8.83243 4.1532 8.90526 3.6369C9.03106 2.71818 9.38198 1.92854 9.95138 1.26798C10.4943 0.645378 11.1498 0.242965 11.9046 0.0835189C12.0436 0.0531482 12.176 0.022778 12.3151 0Z" fill="#BDBDBD"/>
</svg>
