<svg width="12" height="20" viewBox="0 0 12 20" fill="none" xmlns="http://www.w3.org/2000/svg">
<path d="M0 12.207C0 12.0839 0 11.9589 0 11.8359C0.0190598 11.83 0.0171538 11.8105 0.0190598 11.7968C0.0667092 11.5019 0.17535 11.2363 0.373571 11.0136C0.886279 10.4394 1.64105 10.3437 2.2967 10.7578C3.284 11.3808 4.35706 11.7011 5.51399 11.7343C5.91806 11.746 6.31831 11.7109 6.71666 11.6425C7.49811 11.5097 8.23382 11.2402 8.91044 10.8164C9.26877 10.5917 9.63662 10.4511 10.0617 10.5273C10.5648 10.6152 10.927 10.8984 11.1576 11.3632C11.23 11.5078 11.2472 11.6699 11.3043 11.8183C11.3043 11.9492 11.3043 12.0781 11.3043 12.2089C11.2739 12.2304 11.2796 12.2675 11.2739 12.2968C11.19 12.7324 10.9632 13.0644 10.5991 13.2988C9.84437 13.7832 9.03814 14.1523 8.18045 14.3984C8.02226 14.4433 7.86406 14.4863 7.70586 14.5293C7.71921 14.5742 7.75161 14.5937 7.77448 14.6172C8.40536 15.2636 9.03624 15.9101 9.66711 16.5586C9.96635 16.8672 10.277 17.166 10.5629 17.4883C11.2967 18.3164 10.8927 19.6738 9.83293 19.9473C9.77766 19.9609 9.71095 19.9512 9.66711 20C9.52798 20 9.38694 20 9.2478 20C9.24018 19.9824 9.22302 19.9805 9.20777 19.9785C8.8666 19.9141 8.59214 19.7363 8.35008 19.4863C7.47715 18.5859 6.59849 17.6914 5.72365 16.7929C5.676 16.7441 5.64931 16.7246 5.59023 16.7851C4.70776 17.6914 3.82339 18.5937 2.94283 19.5019C2.69696 19.7539 2.41487 19.9258 2.06989 19.9824C2.05845 19.9844 2.04893 19.9941 2.0394 20C1.90026 20 1.75922 20 1.62008 20C1.60674 19.9648 1.57624 19.9687 1.54956 19.9629C0.712835 19.7969 0.190598 18.9082 0.430751 18.0683C0.514614 17.7793 0.674716 17.5449 0.878655 17.3359C1.76112 16.4316 2.64359 15.5273 3.52606 14.623C3.55274 14.5957 3.58514 14.5761 3.59848 14.5371C3.59277 14.5312 3.58895 14.5254 3.58324 14.5234C3.55655 14.5136 3.52987 14.5058 3.50128 14.498C2.55973 14.2695 1.67726 13.8886 0.844348 13.3847C0.495554 13.1757 0.224905 12.9062 0.0876749 12.5097C0.0533674 12.4101 0.0552733 12.2988 0 12.207Z" fill="#BDBDBD"/>
<path d="M5.22241 0C5.50259 0 5.78087 0 6.06104 0C6.06676 0.0195312 6.08392 0.0195312 6.09916 0.0214844C6.24021 0.0410156 6.38315 0.0546875 6.52229 0.0820312C7.7383 0.316406 8.74847 0.912109 9.53755 1.89258C10.2199 2.73828 10.5954 3.71484 10.6697 4.80664C10.7212 5.54296 10.624 6.26367 10.3686 6.95898C10.0312 7.87499 9.48799 8.63671 8.73513 9.23632C7.99942 9.82226 7.1646 10.1699 6.2383 10.2812C5.73322 10.3418 5.23194 10.3262 4.73258 10.2305C3.93207 10.0762 3.2078 9.74413 2.56548 9.23046C1.87171 8.67577 1.34947 7.98242 1.01021 7.15234C0.644259 6.25585 0.541336 5.32617 0.682378 4.36523C0.762429 3.82617 0.922531 3.3125 1.16459 2.82617C1.50767 2.14062 1.97463 1.55469 2.5712 1.08398C3.2402 0.55664 3.99115 0.216797 4.82597 0.0742187C4.95939 0.0527343 5.09471 0.0488281 5.22241 0ZM5.65507 3.02539C4.55532 2.99609 3.56231 3.96484 3.56421 5.1621C3.56612 6.33593 4.50958 7.30078 5.64554 7.30468C6.80438 7.30859 7.74021 6.32031 7.74212 5.16601C7.74593 3.99804 6.78532 3.00195 5.65507 3.02539Z" fill="#BDBDBD"/>
</svg>
