<svg width="20" height="17" viewBox="0 0 20 17" fill="none" xmlns="http://www.w3.org/2000/svg">
<path d="M19.2829 0.84841C19.2761 0.437034 19.0218 0.118995 18.6302 0.0222004C18.3828 -0.0400246 18.1595 0.0394851 17.9362 0.125909C17.3796 0.340239 16.823 0.547656 16.2664 0.761986C15.6514 1.00743 15.0399 1.25633 14.4214 1.49832C13.2945 1.93389 12.1711 2.38329 11.0373 2.79467C10.6834 2.9364 10.3295 3.0816 9.97223 3.22333C8.73194 3.7073 7.49166 4.18782 6.24794 4.66833C5.4165 4.98983 4.58506 5.30787 3.75363 5.62936C3.72271 5.64319 3.69178 5.66048 3.66086 5.67085C2.75041 6.02691 1.83651 6.37952 0.926054 6.7425C0.675249 6.84275 0.441622 6.98103 0.276709 7.20573C0.118667 7.42352 0.139281 7.63785 0.341987 7.81761C0.462236 7.92823 0.606535 8.00083 0.761141 8.04923C2.23849 8.51591 3.71583 8.97569 5.19318 9.43892C5.24815 9.40781 5.30656 9.38361 5.3581 9.34904C5.72571 9.11742 6.09333 8.87889 6.46095 8.64728C8.09634 7.61019 9.73516 6.57311 11.3706 5.53603C12.6727 4.70982 13.9748 3.88361 15.2769 3.0574C15.4075 2.97443 15.5552 2.91912 15.7098 2.90529C15.7957 2.89492 15.8919 2.90529 15.9331 2.99517C15.9778 3.08851 15.9125 3.16111 15.8507 3.22333C15.7854 3.28901 15.7133 3.34432 15.6446 3.40309C15.112 3.89052 14.5795 4.38141 14.047 4.86538C13.4114 5.44269 12.7689 6.01654 12.1333 6.59385C11.6042 7.07437 11.0785 7.5618 10.546 8.04577C9.66989 8.83741 8.79378 9.62905 7.92112 10.4207C7.83866 10.4967 7.73216 10.559 7.70811 10.6834C7.82492 10.7629 7.9383 10.8459 8.05511 10.9254C8.76974 11.4612 9.48436 11.9971 10.199 12.5329C10.2471 12.5709 10.3124 12.5917 10.3261 12.6642C10.5185 12.7126 10.6319 12.8855 10.8037 12.965C10.8105 12.9754 10.8174 12.9857 10.8243 12.9927C12.123 13.9571 13.4079 14.9458 14.7272 15.8827C15.3937 16.3563 16.0671 16.2387 16.3179 15.3192C16.3248 15.2915 16.3317 15.2639 16.3386 15.2362C16.4313 14.8076 16.5207 14.3823 16.6134 13.9537C16.7921 13.1171 16.9742 12.2805 17.1528 11.4439C17.1631 11.3817 17.17 11.3195 17.1837 11.2573C17.2696 10.8355 17.3521 10.4138 17.438 9.99203C17.5445 9.49077 17.6476 8.98952 17.7541 8.48826C17.9087 7.76921 18.0633 7.05017 18.2144 6.33458L18.2282 6.33112C18.4378 5.32515 18.6508 4.32264 18.8604 3.31667C18.8775 3.22679 18.8913 3.13691 18.9119 3.04703C19.015 2.56305 19.1215 2.07908 19.2245 1.59165C19.2245 1.56745 19.2245 1.54671 19.2245 1.52251C19.2623 1.44646 19.2314 1.35312 19.2898 1.28053C19.2829 1.13534 19.2829 0.990145 19.2829 0.84841Z" fill="#BDBDBD"/>
</svg>
