<svg width="148" height="94" viewBox="0 0 148 94" fill="none" xmlns="http://www.w3.org/2000/svg">
<path d="M4.5228 92.4899H67.3383V73.613H28.1262C29.2683 62.0352 65.9424 56.6238 65.9424 28.5602C65.9424 9.43167 49.8261 1 34.9788 1C18.6087 1 8.3298 10.1867 3 20.3802L19.497 31.3288C22.1619 26.295 27.111 21.7645 32.9484 21.7645C37.6437 21.7645 42.7197 24.4073 42.7197 30.6996C42.7197 43.6617 3.5076 49.5765 3.5076 82.7997C3.5076 85.82 3.8883 88.9662 4.5228 92.4899Z" fill="#F6F6F6"/>
<path d="M113.864 94C139.625 94 148 73.1096 148 47.3112C148 21.5129 139.625 1 113.864 1C88.1032 1 79.7278 21.5129 79.7278 47.3112C79.7278 73.1096 88.1032 94 113.864 94ZM113.864 73.8647C105.108 73.8647 102.57 62.0352 102.57 47.3112C102.57 32.7131 105.108 21.1353 113.864 21.1353C122.62 21.1353 125.158 32.7131 125.158 47.3112C125.158 62.0352 122.62 73.8647 113.864 73.8647Z" fill="#F6F6F6"/>
<path d="M1.5228 91.4899H64.3383V72.613H25.1262C26.2683 61.0352 62.9424 55.6238 62.9424 27.5602C62.9424 8.43167 46.8261 0 31.9788 0C15.6087 0 5.3298 9.18674 0 19.3802L16.497 30.3288C19.1619 25.295 24.111 20.7645 29.9484 20.7645C34.6437 20.7645 39.7197 23.4073 39.7197 29.6996C39.7197 42.6617 0.5076 48.5765 0.5076 81.7997C0.5076 84.82 0.888299 87.9662 1.5228 91.4899Z" fill="#00FF57"/>
<path d="M110.864 93C136.625 93 145 72.1096 145 46.3112C145 20.5129 136.625 0 110.864 0C85.1032 0 76.7278 20.5129 76.7278 46.3112C76.7278 72.1096 85.1032 93 110.864 93ZM110.864 72.8647C102.108 72.8647 99.5698 61.0352 99.5698 46.3112C99.5698 31.7131 102.108 20.1353 110.864 20.1353C119.62 20.1353 122.158 31.7131 122.158 46.3112C122.158 61.0352 119.62 72.8647 110.864 72.8647Z" fill="#00FF57"/>
</svg>
