<svg width="24" height="24" viewBox="0 0 24 24" fill="none" xmlns="http://www.w3.org/2000/svg">
<circle cx="12" cy="12" r="11.5" stroke="#00FF57"/>
<path d="M8.592 11.952H9.728V6.848H12.656C13.2 6.848 13.696 6.912 14.144 7.04C14.592 7.15733 14.976 7.344 15.296 7.6C15.616 7.84533 15.8667 8.16 16.048 8.544C16.2293 8.928 16.32 9.38667 16.32 9.92C16.32 10.4533 16.224 10.9173 16.032 11.312C15.84 11.7067 15.5787 12.0373 15.248 12.304C14.9173 12.56 14.528 12.752 14.08 12.88C13.632 13.008 13.1467 13.072 12.624 13.072H11.008V14.688H13.584V15.744H11.008V18H9.728V15.744H8.592V14.688H9.728V13.072H8.592V11.952ZM12.656 11.952C13.392 11.952 13.968 11.7867 14.384 11.456C14.8107 11.1147 15.024 10.6027 15.024 9.92C15.024 9.23733 14.8107 8.74133 14.384 8.432C13.968 8.12267 13.392 7.968 12.656 7.968H11.008V11.952H12.656Z" fill="#00FF57"/>
</svg>
