<svg width="69" height="13" viewBox="0 0 69 13" fill="none" xmlns="http://www.w3.org/2000/svg">
<path d="M6.79998 12.8L4.09998 9.10004H3.59998V12.8H0.599976V1.10004H5.29998C6.59998 1.10004 7.59998 1.40004 8.39998 2.00004C9.19998 2.60004 9.59998 3.60004 9.59998 4.90004C9.59998 7.00004 8.79998 8.30004 7.29998 8.70004L10.5 12.7L6.79998 12.8ZM3.59998 6.50004H5.29998C5.89998 6.50004 6.29998 6.30004 6.49998 5.80004C6.69998 5.40004 6.69998 4.90004 6.49998 4.50004C6.29998 4.10004 5.79998 3.80004 5.29998 3.80004H3.59998V6.50004Z" fill="white"/>
<path d="M14 1.10004V8.90004C14 9.30004 14.1 9.60004 14.3 9.80004C14.5 10 14.8 10.2 15.1 10.3C15.4 10.4 15.8 10.4 16.1 10.3C16.4 10.2 16.7 10.1 16.9 9.80004C17.1 9.60004 17.2 9.30004 17.2 8.90004V1.10004H20.2V8.90004C20.2 9.50004 20.1 10 19.9 10.5C19.7 11 19.4 11.4 19 11.7C18.6 12 18.2 12.3 17.8 12.5C17.3 12.7 16.8 12.9 16.3 12.9C15.8 12.9 15.3 12.9 14.8 12.9C14.3 12.9 13.8 12.7 13.3 12.5C12.8 12.3 12.4 12 12.1 11.7C11.7 11.4 11.5 11 11.2 10.5C11 10 10.9 9.50004 10.9 8.90004V1.10004H14Z" fill="white"/>
<path d="M21.3 10.8L23.2 9.00005C23.4 9.30005 23.7 9.50005 24 9.70005C24.3 9.90005 24.7 10 25 10.1C25.3 10.2 25.6 10.2 25.9 10.1C26.2 10.1 26.4 10 26.6 9.80005C26.8 9.60005 26.9 9.40005 26.9 9.20005C26.9 8.90005 26.7 8.60005 26.3 8.40005C25.9 8.20005 25.4 8.10005 24.9 8.00005C23.9 7.80005 23 7.40005 22.3 6.80005C21.6 6.20005 21.3 5.30005 21.3 4.30005C21.3 3.20005 21.7 2.40005 22.5 1.70005C23.3 1.10005 24.3 0.800049 25.5 0.800049C27.1 0.800049 28.5 1.40005 29.5 2.70005L27.6 4.20005C27.2 3.80005 26.7 3.50005 26.2 3.30005C25.7 3.20005 25.2 3.20005 24.8 3.30005C24.4 3.50005 24.2 3.80005 24.2 4.20005C24.2 4.70005 24.8 5.10005 25.8 5.30005C26.3 5.40005 26.7 5.50005 27 5.60005C27.4 5.70005 27.7 5.90005 28.1 6.10005C28.5 6.30005 28.8 6.50005 29 6.80005C29.2 7.10005 29.4 7.40005 29.6 7.90005C29.7 8.30005 29.8 8.80005 29.8 9.40005C29.8 10.1 29.5 10.8 29 11.3C28.5 11.9 27.9 12.3 27.3 12.5C26.6 12.8 25.9 12.9 25.2 12.9C24.5 12.9 23.8 12.7 23.1 12.4C22.4 12.1 21.9 11.5 21.3 10.8Z" fill="white"/>
<path d="M39.6 4.60004C39.6 4.90004 39.5 5.30004 39.3 5.60004C39.1 6.00004 38.8 6.30004 38.4 6.50004C39.1 6.90004 39.6 7.30004 39.8 8.00004C40 8.60004 40.1 9.20004 40 9.80004C39.7 11.8 38.3 12.8 35.8 12.8H31V1.10004H35.7C36.8 1.10004 37.8 1.40004 38.5 2.10004C39.2 2.70004 39.6 3.50004 39.6 4.60004ZM34 5.60004H35.7C36.2 5.60004 36.5 5.40004 36.7 5.10004C36.9 4.80004 36.9 4.40004 36.7 4.10004C36.5 3.80004 36.2 3.60004 35.7 3.60004H34V5.60004ZM34 10.2H35.7C36.3 10.2 36.7 10 36.9 9.60004C37.1 9.20004 37.1 8.80004 36.9 8.40004C36.7 8.00004 36.3 7.80004 35.7 7.80004H34V10.2Z" fill="white"/>
<path d="M46.7 1.10004L50.9 12.8H47.7L47 10.4H43.9L43.2 12.8H40L44 1.10004H46.7ZM44.5 7.80004H46.3L45.5 4.40004H45.4L44.5 7.80004Z" fill="white"/>
<path d="M50.8 10.8L52.7 9.00005C52.9 9.30005 53.2 9.50005 53.5 9.70005C53.8 9.90005 54.2 10 54.5 10.1C54.8 10.2 55.1 10.2 55.4 10.1C55.7 10.1 55.9 10 56.1 9.80005C56.3 9.60005 56.4 9.40005 56.4 9.20005C56.4 8.90005 56.2 8.60005 55.8 8.40005C55.4 8.20005 54.9 8.10005 54.4 8.00005C53.4 7.80005 52.5 7.40005 51.8 6.80005C51.1 6.20005 50.8 5.30005 50.8 4.30005C50.8 3.20005 51.2 2.40005 52 1.70005C52.8 1.10005 53.8 0.800049 55 0.800049C56.6 0.800049 58 1.40005 59 2.70005L57.1 4.20005C56.7 3.80005 56.2 3.50005 55.7 3.30005C55.2 3.20005 54.7 3.20005 54.3 3.30005C53.9 3.50005 53.7 3.80005 53.7 4.20005C53.7 4.70005 54.3 5.10005 55.3 5.30005C55.8 5.40005 56.2 5.50005 56.5 5.60005C56.9 5.70005 57.2 5.90005 57.6 6.10005C58 6.30005 58.3 6.50005 58.5 6.80005C58.7 7.10005 58.9 7.40005 59.1 7.90005C59.2 8.30005 59.3 8.80005 59.3 9.40005C59.3 10.1 59 10.8 58.5 11.3C58 11.9 57.4 12.3 56.8 12.5C56.1 12.8 55.4 12.9 54.7 12.9C54 12.9 53.3 12.7 52.6 12.4C51.9 12.1 51.3 11.5 50.8 10.8Z" fill="white"/>
<path d="M63.5 3.80004V5.60004H68.3V8.20004H63.5V10H68.7V12.8H60.5V1.10004H68.7V3.90004L63.5 3.80004Z" fill="white"/>
</svg>
